#N canvas 827 239 527 327 12;
#N canvas 0 50 450 250 (subpatch) 0;
#X text 0 0 plugdatainfo <?xml version="1.0" encoding="UTF-8"?> <PlugDataInfo/>
;
#X coords 0 1 100 -1 1 1 1;
#X restore 0 0 graph;
#X obj 20 12 cnv 281 281 45 empty empty WAIVE-Online 20 22 0 32 #a8a8a8
#5a5a5a 0;
#X obj 20 56 cnv 281 281 34 empty empty Launch\ Contol\ XL 20 18 0
18 #c8c8c8 #5a5a5a 0;
#N canvas 0 50 450 300 setLED 1;
#N canvas 0 50 450 250 (subpatch) 0;
#X text 0 0 plugdatainfo <?xml version="1.0" encoding="UTF-8"?> <PlugDataInfo/>
;
#X coords 0 1 100 -1 1 1 1;
#X restore 0 0 graph;
#X obj 102 49 inlet;
#X obj 102 87 route green red chan;
#X obj 138 476 note.out;
#X obj 138 411 nbx 4 21 -1e+37 1e+37 0 0 empty empty empty 0 -8 0 10
#e4e4e4 #5a5a5a #5a5a5a 0 256;
#X obj 58 234 * 16;
#X obj 58 301 + 12;
#X obj 58 202 nbx 4 21 -1e+37 1e+37 0 0 empty empty empty 0 -8 0 10
#e4e4e4 #5a5a5a #5a5a5a 0 256;
#X obj 118 202 nbx 4 21 -1e+37 1e+37 0 0 empty empty empty 0 -8 0 10
#e4e4e4 #5a5a5a #5a5a5a 0 256;
#X obj 58 267 +, f 6;
#X obj 118 234 t b f;
#X obj 58 338 t b f;
#X obj 194 411 nbx 4 21 -1e+37 1e+37 0 0 empty empty empty 0 -8 0 10
#e4e4e4 #5a5a5a #5a5a5a 0 256;
#X obj 248 411 nbx 4 21 -1e+37 1e+37 0 0 empty empty empty 0 -8 0 10
#e4e4e4 #5a5a5a #5a5a5a 0 256;
#X obj 138 510 midiout;
#X text 542 304 red:;
#X text 542 324 green:;
#X obj 598 305 nbx 4 21 -1e+37 1e+37 0 0 empty empty empty 0 -8 0 10
#e4e4e4 #5a5a5a #5a5a5a 0 256;
#X obj 598 325 nbx 4 21 -1e+37 1e+37 0 0 empty empty empty 0 -8 0 10
#e4e4e4 #5a5a5a #5a5a5a 0 256;
#X obj 598 285 nbx 4 21 -1e+37 1e+37 0 0 empty empty empty 0 -8 0 10
#e4e4e4 #5a5a5a #5a5a5a 0 256;
#X text 542 284 chan:;
#X obj 598 265 nbx 4 21 -1e+37 1e+37 0 0 empty empty empty 0 -8 0 10
#e4e4e4 #5a5a5a #5a5a5a 0 256;
#X text 542 264 num:;
#X connect 1 0 2 0;
#X connect 2 0 7 0;
#X connect 2 0 18 0;
#X connect 2 1 8 0;
#X connect 2 1 17 0;
#X connect 2 2 13 0;
#X connect 2 2 19 0;
#X connect 2 3 4 0;
#X connect 2 3 21 0;
#X connect 3 0 14 0;
#X connect 4 0 3 0;
#X connect 5 0 9 0;
#X connect 6 0 11 0;
#X connect 7 0 5 0;
#X connect 8 0 10 0;
#X connect 9 0 6 0;
#X connect 10 0 7 0;
#X connect 10 1 9 1;
#X connect 11 0 4 0;
#X connect 11 1 12 0;
#X connect 12 0 3 1;
#X connect 13 0 3 2;
#X coords 0 0 1 1 105 93 2 545 259;
#X restore 67 788 pd setLED;
#X obj 67 751 r led;
#N canvas 0 50 450 300 setup 1;
#N canvas 0 50 450 250 (subpatch) 0;
#X text 0 0 plugdatainfo <?xml version="1.0" encoding="UTF-8"?> <PlugDataInfo/>
;
#X coords 0 1 100 -1 1 1 1;
#X restore 0 0 graph;
#X obj 108 122 loadbang;
#X msg 108 225 13 \, chan 1 \, red 3 \, green 0 \, 14 \, 15, f 29
;
#X msg 133 259 29 \, chan 1 \, red 3 \, green 1 \, 30 \, 31, f 30
;
#X obj 108 439 s led;
#X msg 157 291 45 \, chan 1 \, red 3 \, green 3 \, 46 \, 47, f 30
;
#X msg 182 321 61 \, chan 1 \, red 3 \, green 0 \, 62 \, 63, f 30
;
#X msg 207 350 77 \, chan 1 \, red 3 \, green 3 \, 78 \, 79, f 30
;
#X msg 231 380 93 \, chan 1 \, red 0 \, green 3 \, 94 \, 95 \, 109
\, 110 \, 111 \, 125 \, 126 \, 127, f 53;
#X obj 182 122 bng 25 250 50 0 empty empty empty 17 7 0 10 #e4e4e4
#828282 #5a5a5a;
#X msg 688 225 41 \, chan 1 \, red 3 \, green 0 \, 42 \, 43 \, 44,
f 33;
#X obj 688 439 s led;
#X obj 110 154 t b b b b b b b;
#X obj 688 154 t b b b b b b b;
#X msg 727 259 73 \, chan 1 \, red 3 \, green 2 \, 74 \, 75 \, 76 \,
89 \, 90 \, 91 \, 92, f 45;
#X msg 759 291 57 \, chan 1 \, red 0 \, green 0 \, 58, f 27;
#X msg 785 321 59 \, chan 1 \, red 0 \, green 3 \, 60, f 27;
#X text 378 244 Knobs;
#X text 981 193 Pads;
#X obj 1161 154 t b b b b b b b;
#X msg 1161 225 105 \, chan 1 \, red 0 \, green 3 \, 106 \, 107 \,
108, f 37;
#X obj 1161 439 s led;
#X text 273 546 Show Colour Palette;
#X obj 140 584 bng 25 250 50 0 empty empty empty 17 7 0 10 #e4e4e4
#828282 #5a5a5a;
#X msg 138 697 41 \, chan 1 \, red 0 \, green 0, f 24;
#X msg 148 727 42 \, chan 1 \, red 1 \, green 0, f 23;
#X msg 158 757 43 \, chan 1 \, red 2 \, green 0, f 24;
#X msg 168 787 44 \, chan 1 \, red 3 \, green 0, f 24;
#X obj 140 884 s led;
#X msg 348 697 73 \, chan 1 \, red 0 \, green 1, f 23;
#X msg 358 727 74 \, chan 1 \, red 1 \, green 1, f 23;
#X msg 368 757 75 \, chan 1 \, red 2 \, green 1, f 23;
#X msg 378 787 76 \, chan 1 \, red 3 \, green 1, f 23;
#X obj 348 884 s led;
#X obj 139 620 t b b b b b;
#X obj 348 620 t b b b b b;
#X msg 558 697 57 \, chan 1 \, red 0 \, green 2, f 24;
#X msg 568 727 58 \, chan 1 \, red 1 \, green 2, f 23;
#X msg 578 757 59 \, chan 1 \, red 2 \, green 2, f 24;
#X msg 588 787 60 \, chan 1 \, red 3 \, green 2, f 24;
#X obj 558 884 s led;
#X obj 558 620 t b b b b b;
#X msg 778 697 89 \, chan 1 \, red 0 \, green 3, f 24;
#X msg 788 727 90 \, chan 1 \, red 1 \, green 3, f 24;
#X msg 798 757 91 \, chan 1 \, red 2 \, green 3, f 23;
#X msg 808 787 92 \, chan 1 \, red 3 \, green 3, f 24;
#X obj 778 884 s led;
#X obj 778 620 t b b b b b;
#X msg 1098 584 \; trackcontrol 0 73 74 75 76 89 90 91 92, f 37;
#X obj 1098 545 loadbang;
#X connect 1 0 12 0;
#X connect 2 0 4 0;
#X connect 3 0 4 0;
#X connect 5 0 4 0;
#X connect 6 0 4 0;
#X connect 7 0 4 0;
#X connect 8 0 4 0;
#X connect 9 0 12 0;
#X connect 10 0 11 0;
#X connect 12 0 2 0;
#X connect 12 1 3 0;
#X connect 12 2 5 0;
#X connect 12 3 6 0;
#X connect 12 4 7 0;
#X connect 12 5 8 0;
#X connect 12 6 13 0;
#X connect 13 0 10 0;
#X connect 13 1 14 0;
#X connect 13 2 15 0;
#X connect 13 3 16 0;
#X connect 13 6 19 0;
#X connect 14 0 11 0;
#X connect 15 0 11 0;
#X connect 16 0 11 0;
#X connect 19 0 20 0;
#X connect 20 0 21 0;
#X connect 23 0 34 0;
#X connect 24 0 28 0;
#X connect 25 0 28 0;
#X connect 26 0 28 0;
#X connect 27 0 28 0;
#X connect 29 0 33 0;
#X connect 30 0 33 0;
#X connect 31 0 33 0;
#X connect 32 0 33 0;
#X connect 34 0 24 0;
#X connect 34 1 25 0;
#X connect 34 2 26 0;
#X connect 34 3 27 0;
#X connect 34 4 35 0;
#X connect 35 0 29 0;
#X connect 35 1 30 0;
#X connect 35 2 31 0;
#X connect 35 3 32 0;
#X connect 35 4 41 0;
#X connect 36 0 40 0;
#X connect 37 0 40 0;
#X connect 38 0 40 0;
#X connect 39 0 40 0;
#X connect 41 0 36 0;
#X connect 41 1 37 0;
#X connect 41 2 38 0;
#X connect 41 3 39 0;
#X connect 41 4 47 0;
#X connect 42 0 46 0;
#X connect 43 0 46 0;
#X connect 44 0 46 0;
#X connect 45 0 46 0;
#X connect 47 0 42 0;
#X connect 47 1 43 0;
#X connect 47 2 44 0;
#X connect 47 3 45 0;
#X connect 49 0 48 0;
#X restore 392 12 pd setup;
#X msg 130 648 disconnect, f 12;
#X msg 107 615 connect localhost 9200, f 22;
#X obj 107 581 loadbang;
#X obj 23 112 midiin;
#X obj 23 166 ctl.in 1, f 13;
#X obj 23 204 rescale;
#X obj 23 241 swap, f 8;
#X obj 23 273 pack f f;
#X text 92 292 Faders;
#X text 184 292 SendA;
#X text 294 292 SendB;
#X text 412 292 Pan/Device;
#X text 116 240 User 1;
#N canvas 0 50 450 300 faders 1;
#N canvas 0 50 450 250 (subpatch) 0;
#X text 0 0 plugdatainfo <?xml version="1.0" encoding="UTF-8"?> <PlugDataInfo/>
;
#X coords 0 1 100 -1 1 1 1;
#X restore 0 0 graph;
#X obj 133 210 inlet;
#X obj 170 344 vsl 8 61 0 1 0 0 empty empty empty 0 -9 0 10 #e4e4e4
#828282 #5a5a5a 0 1;
#X obj 180 344 vsl 8 61 0 1 0 0 empty empty empty 0 -9 0 10 #e4e4e4
#828282 #5a5a5a 0 1;
#X obj 190 344 vsl 8 61 0 1 0 0 empty empty empty 0 -9 0 10 #e4e4e4
#828282 #5a5a5a 0 1;
#X obj 200 344 vsl 8 61 0 1 0 0 empty empty empty 0 -9 0 10 #e4e4e4
#828282 #5a5a5a 0 1;
#X obj 210 344 vsl 8 61 0 1 0 0 empty empty empty 0 -9 0 10 #e4e4e4
#828282 #5a5a5a 0 1;
#X obj 220 344 vsl 8 61 0 1 0 0 empty empty empty 0 -9 0 10 #e4e4e4
#828282 #5a5a5a 0 1;
#X obj 230 344 vsl 8 61 0 1 0 0 empty empty empty 0 -9 0 10 #e4e4e4
#828282 #5a5a5a 0 1;
#X obj 240 344 vsl 8 61 0 1 0 0 empty empty empty 0 -9 0 10 #e4e4e4
#828282 #5a5a5a 0 1;
#X obj 133 274 route 77 78 79 80 81 82 83 84;
#X obj 331 575 outlet;
#X obj 589 327 outlet;
#X obj 710 490 oscformat -f f masterFX gain gain, f 17;
#X obj 87 490 oscformat -f f 00_KDFX channel volume, f 17;
#X obj 210 490 oscformat -f f 01_SDFX channel volume, f 17;
#X obj 331 490 oscformat -f f 02_HHFX channel volume, f 17;
#X obj 455 490 oscformat -f f bassFX channel volume, f 17;
#X obj 583 490 oscformat -f f samplerFX channel volume, f 17;
#X connect 1 0 10 0;
#X connect 2 0 14 0;
#X connect 3 0 15 0;
#X connect 4 0 16 0;
#X connect 5 0 17 0;
#X connect 6 0 18 0;
#X connect 9 0 13 0;
#X connect 10 0 2 0;
#X connect 10 1 3 0;
#X connect 10 2 4 0;
#X connect 10 3 5 0;
#X connect 10 4 6 0;
#X connect 10 5 7 0;
#X connect 10 6 8 0;
#X connect 10 7 9 0;
#X connect 10 8 12 0;
#X connect 13 0 11 0;
#X connect 14 0 11 0;
#X connect 15 0 11 0;
#X connect 16 0 11 0;
#X connect 17 0 11 0;
#X connect 18 0 11 0;
#X coords 0 0 1 1 91 72 2 164 338;
#X restore 23 322 pd faders;
#N canvas 0 50 450 300 pan 1;
#N canvas 0 50 450 250 (subpatch) 0;
#X text 0 0 plugdatainfo <?xml version="1.0" encoding="UTF-8"?> <PlugDataInfo/>
;
#X coords 0 1 100 -1 1 1 1;
#X restore 0 0 graph;
#X obj 97 209 inlet;
#X obj 543 301 outlet;
#X obj 248 250 route 49 50 51 52 53 54 55 56;
#X obj 288 283 hsl 34 9 0 1 0 0 empty empty empty -2 -8 0 10 #e4e4e4
#828282 #5a5a5a 0 1;
#X obj 288 293 hsl 34 9 0 1 0 0 empty empty empty -2 -8 0 10 #e4e4e4
#828282 #5a5a5a 0 1;
#X obj 288 313 hsl 34 9 0 1 0 0 empty empty empty -2 -8 0 10 #e4e4e4
#828282 #5a5a5a 0 1;
#X obj 288 323 hsl 34 9 0 1 0 0 empty empty empty -2 -8 0 10 #e4e4e4
#828282 #5a5a5a 0 1;
#X obj 288 333 hsl 34 9 0 1 0 0 empty empty empty -2 -8 0 10 #e4e4e4
#828282 #5a5a5a 0 1;
#X obj 288 343 hsl 34 9 0 1 0 0 empty empty empty -2 -8 0 10 #e4e4e4
#828282 #5a5a5a 0 1;
#X obj 288 353 hsl 34 9 0 1 0 0 empty empty empty -2 -8 0 10 #e4e4e4
#828282 #5a5a5a 0 1;
#X obj 288 303 hsl 34 9 0 1 0 0 empty empty empty -2 -8 0 10 #e4e4e4
#828282 #5a5a5a 0 1;
#X obj 368 560 outlet;
#X obj 46 460 oscformat -f f 00_KDFX channel pan, f 17;
#X obj 174 460 oscformat -f f 01_SDFX channel pan, f 17;
#X obj 298 460 oscformat -f f 02_HHFX channel pan, f 17;
#X obj 424 460 oscformat -f f bassFX channel pan, f 17;
#X obj 555 460 oscformat -f f samplerFX channel pan, f 17;
#X connect 1 0 3 0;
#X connect 3 0 4 0;
#X connect 3 1 5 0;
#X connect 3 2 11 0;
#X connect 3 3 6 0;
#X connect 3 4 7 0;
#X connect 3 5 8 0;
#X connect 3 6 9 0;
#X connect 3 7 10 0;
#X connect 3 8 2 0;
#X connect 4 0 13 0;
#X connect 5 0 14 0;
#X connect 6 0 16 0;
#X connect 7 0 17 0;
#X connect 11 0 15 0;
#X connect 13 0 12 0;
#X connect 14 0 12 0;
#X connect 15 0 12 0;
#X connect 16 0 12 0;
#X connect 16 0 10 0;
#X connect 17 0 12 0;
#X coords 0 0 1 1 47 91 2 282 277;
#X restore 429 322 pd pan;
#X obj 848 210 nbx 4 21 -1e+37 1e+37 0 0 empty empty empty 0 -8 0 10
#e4e4e4 #5a5a5a #5a5a5a 0 256;
#X obj 908 210 nbx 4 21 -1e+37 1e+37 0 0 empty empty empty 0 -8 0 10
#e4e4e4 #5a5a5a #5a5a5a 0 256;
#X obj 781 253 pack;
#X obj 781 166 note.in 1, f 18;
#X obj 781 322 route 41 42 43 44 57 58 59 60;
#X obj 996 322 route 73 74 75 76 89 90 91 92;
#X text 835 292 Track Focus;
#X text 1045 296 Track Control;
#X obj 1320 322 route 105 106 107 108;
#X text 1340 296 Channel Action;
#X obj 549 860 oscformat request bassline;
#X obj 107 692 netsend -u -b;
#X obj 45 660 r oscmsg;
#X obj 147 491 s oscmsg;
#X obj 549 894 s oscmsg;
#X text 634 292 Select;
#N canvas 0 50 450 300 fadeknob 0;
#N canvas 0 50 450 250 (subpatch) 0;
#X text 0 0 plugdatainfo <?xml version="1.0" encoding="UTF-8"?> <PlugDataInfo/>
;
#X coords 0 1 100 -1 1 1 1;
#X restore 0 0 graph;
#X obj 248 64 hsl 128 17 0 1 0 0 empty empty empty -2 -8 0 10 #e4e4e4
#828282 #5a5a5a 0 1;
#X obj 184 253 nbx 4 21 -1e+37 1e+37 0 0 empty empty empty 0 -8 0 10
#e4e4e4 #5a5a5a #5a5a5a 0 256;
#X obj 183 190 floor;
#X obj 331 253 nbx 4 21 -1e+37 1e+37 0 0 empty empty empty 0 -8 0 10
#e4e4e4 #5a5a5a #5a5a5a 0 256;
#X obj 330 190 floor;
#X msg 115 436 \$1 \, chan 1 \, red \$2 \, green \$3, f 26;
#X obj 116 354 pack f f f;
#X obj 65 316 nbx 4 21 -1e+37 1e+37 0 0 empty empty empty 0 -8 0 10
#e4e4e4 #5a5a5a #5a5a5a 0 256;
#X obj 178 283 t b f;
#X obj 233 282 t b f;
#X obj 114 472 s led;
#X msg 322 388 41 \, chan 1 \, red 1 \, green 0, f 23;
#X obj 178 129 rescale -clip 0 0.9 3 0;
#X obj 325 129 rescale -clip 0.1 1 0 3;
#X obj 47 141 vsl 17 128 0 127 0 0 empty empty empty 0 -9 0 10 #e4e4e4
#828282 #5a5a5a 0 1;
#X connect 1 0 13 0;
#X connect 1 0 14 0;
#X connect 2 0 9 0;
#X connect 3 0 2 0;
#X connect 4 0 10 0;
#X connect 5 0 4 0;
#X connect 6 0 11 0;
#X connect 7 0 6 0;
#X connect 8 0 7 0;
#X connect 9 0 8 0;
#X connect 9 1 7 1;
#X connect 10 0 8 0;
#X connect 10 1 7 2;
#X connect 12 0 11 0;
#X connect 13 0 3 0;
#X connect 14 0 5 0;
#X connect 15 0 8 0;
#X restore 471 12 pd fadeknob;
#X obj 640 566 nbx 5 20 -1e+37 1e+37 0 0 empty empty empty 0 -8 0 10
#e4e4e4 #5a5a5a #5a5a5a 0 256;
#X obj 588 363 sel;
#X obj 640 471 + 1;
#X obj 588 392 t b b;
#X msg 618 437 -1, f 5;
#X msg 659 437 1, f 5;
#X obj 634 363 sel;
#X obj 634 392 t b b;
#X obj 588 471 f 0;
#X obj 588 322 route 104 105 106 107;
#X obj 588 540 vradio 20 1 0 3 empty empty empty 0 -8 0 10 #e4e4e4
#828282 #5a5a5a 0;
#X obj 640 521 clip 0 2;
#X obj 585 613 sel 0 1 2, f 30;
#X msg 535 720 set request drums, f 18;
#X msg 554 759 set request bassline, f 19;
#X msg 572 799 set request melody, f 18;
#X msg 279 720 41 \, chan 1 \, red 3 \, green 0 \, 42 \, 43 \, 44,
f 33;
#X msg 283 759 41 \, chan 1 \, red 3 \, green 1 \, 42 \, 43 \, 44,
f 33;
#X msg 283 799 41 \, chan 1 \, red 1 \, green 3 \, 42 \, 43 \, 44,
f 33;
#X obj 216 845 s led;
#X obj 634 257 print unknown ctl;
#X obj 1475 322 print unknown nn;
#X obj 973 851 oscformat -f i add bassline;
#X msg 945 453 0, f 5;
#X msg 985 453 1, f 5;
#X msg 1023 453 2, f 5;
#X msg 1065 453 3, f 5;
#X msg 1105 453 4, f 5;
#X msg 1143 453 5, f 5;
#X obj 997 357 sel;
#X obj 1074 899 s oscmsg;
#X msg 1185 453 6, f 5;
#X msg 1223 453 7, f 5;
#X obj 1017 387 sel;
#X obj 1037 357 sel;
#X obj 1057 387 sel;
#X obj 1077 357 sel;
#X obj 1097 387 sel;
#X obj 1117 357 sel;
#X obj 1137 387 sel;
#X msg 880 720 set add drums, f 14;
#X msg 899 759 set add bassline, f 16;
#X msg 917 799 set add melody, f 15;
#X msg 1010 720 set delete drums, f 16;
#X msg 1029 759 set delete bassline, f 18;
#X msg 1047 799 set delete melody, f 17;
#X msg 1160 720 set remove drums, f 18;
#X msg 1179 759 set remove bassline, f 19;
#X msg 1197 799 set remove melody, f 18;
#X obj 735 357 sel;
#X obj 767 357 sel;
#X obj 799 357 sel;
#X obj 835 357 sel;
#X obj 718 432 oscformat -f i remove bassline;
#X obj 1191 851 oscformat -f i delete bassline;
#X msg 718 392 0, f 5;
#X msg 758 392 1, f 5;
#X msg 798 392 2, f 5;
#X msg 838 392 3, f 5;
#X obj 718 464 s oscmsg;
#X obj 928 357 sel;
#X msg 685 720 set variation drums, f 18;
#X msg 704 759 set variation bassline, f 20;
#X msg 722 799 set variation melody, f 19;
#X obj 889 357 sel, f 4;
#X obj 734 860 oscformat variation bassline;
#X text 1058 53 OSC In;
#N canvas 0 50 450 300 showMute 1;
#N canvas 0 50 450 250 (subpatch) 0;
#X text 0 0 plugdatainfo <?xml version="1.0" encoding="UTF-8"?> <PlugDataInfo/>
;
#X coords 0 1 100 -1 1 1 1;
#X restore 0 0 graph;
#X obj 197 98 bng 25 250 50 0 empty empty empty 17 7 0 10 #191919 #c8c8c8
#ffffff;
#X obj 197 62 r drawMute;
#X obj 73 234 loop;
#X msg 73 201 5, f 5;
#X obj 73 305 tabread muteState;
#X obj 73 271 t f f;
#X msg 29 515 \$1 \, chan 1 \, red 0 \, green 3, f 24;
#X msg 205 515 \$1 \, chan 1 \, red 3 \, green 0, f 24;
#X obj 116 437 f;
#X obj 173 437 f;
#X obj 190 383 t f f;
#X obj 134 603 s led;
#X obj 73 342 == 1;
#X obj 73 381 sel 0 1, f 8;
#X obj 202 305 tabread trackcontrol;
#X obj 570 255 loop;
#X msg 570 219 8, f 5;
#X obj 570 289 tabread trackcontrol;
#X msg 570 320 \$1 \, chan 1 \, red 0 \, green 0, f 24;
#X obj 570 356 s led;
#X obj 197 132 t b b;
#X text 647 237 clear row;
#X text 238 341 draw coloured channels;
#X connect 1 0 21 0;
#X connect 2 0 1 0;
#X connect 3 0 6 0;
#X connect 4 0 3 0;
#X connect 5 0 13 0;
#X connect 6 0 5 0;
#X connect 6 1 15 0;
#X connect 7 0 12 0;
#X connect 8 0 12 0;
#X connect 9 0 7 0;
#X connect 10 0 8 0;
#X connect 11 0 9 1;
#X connect 11 0 10 1;
#X connect 13 0 14 0;
#X connect 14 0 9 0;
#X connect 14 1 10 0;
#X connect 15 0 11 0;
#X connect 16 0 18 0;
#X connect 17 0 16 0;
#X connect 18 0 19 0;
#X connect 19 0 20 0;
#X connect 21 0 4 0;
#X connect 21 1 17 0;
#X restore 717 14 pd showMute;
#X obj 572 13 table trackcontrol 8;
#X obj 572 46 table muteState 8;
#N canvas 0 50 450 300 SendB 1;
#N canvas 0 50 450 250 (subpatch) 0;
#X text 0 0 plugdatainfo <?xml version="1.0" encoding="UTF-8"?> <PlugDataInfo/>
;
#X coords 0 1 100 -1 1 1 1;
#X restore 0 0 graph;
#X obj 103 153 route 29 30 31 32 33 34 35 36, f 68;
#X obj 103 115 inlet;
#X obj 669 214 outlet;
#X obj 103 411 outlet;
#X obj 103 247 oscformat -f f 00_KDFX eq3 high;
#X obj 113 277 oscformat -f f 01_SDFX eq3 high;
#X obj 123 307 oscformat -f f 02_HHFX eq3 high;
#X obj 343 247 oscformat -f f bass q;
#X obj 362 277 oscformat -f f samplerFX filter frequency;
#X obj 912 263 oscformat -f f masterFX filter frequency, f 17;
#X obj 782 263 oscformat -f f masterFX filter Q, f 17;
#X obj 636 263 oscformat -f f masterFX delay feedback, f 19;
#X connect 1 0 5 0;
#X connect 1 1 6 0;
#X connect 1 2 7 0;
#X connect 1 3 8 0;
#X connect 1 4 9 0;
#X connect 1 5 12 0;
#X connect 1 6 11 0;
#X connect 1 7 10 0;
#X connect 1 8 3 0;
#X connect 2 0 1 0;
#X connect 5 0 4 0;
#X connect 6 0 4 0;
#X connect 7 0 4 0;
#X connect 8 0 4 0;
#X connect 9 0 4 0;
#X connect 10 0 4 0;
#X connect 11 0 4 0;
#X connect 12 0 4 0;
#X restore 275 322 pd SendB;
#N canvas 0 50 450 300 SendA 1;
#N canvas 0 50 450 250 (subpatch) 0;
#X text 0 0 plugdatainfo <?xml version="1.0" encoding="UTF-8"?> <PlugDataInfo/>
;
#X coords 0 1 100 -1 1 1 1;
#X restore 0 0 graph;
#X obj 103 115 inlet;
#X obj 819 214 outlet;
#X obj 103 411 outlet;
#X obj 103 153 route 13 14 15 16 17 18 19 20, f 68;
#X obj 103 247 oscformat -f f 00_KDFX eq3 mid;
#X obj 113 277 oscformat -f f 01_SDFX eq3 mid;
#X obj 123 307 oscformat -f f 02_HHFX eq3 mid;
#X obj 553 277 oscformat -f f loopLength;
#X obj 391 352 oscformat -f f drums threshold;
#X obj 391 319 / 2;
#X obj 329 247 oscformat -f f bass octaves;
#X obj 347 277 oscformat -f f sampler attack;
#X obj 533 247 oscformat -f f masterFX reverb decay;
#N canvas 0 50 450 300 landed 1;
#N canvas 0 50 450 250 (subpatch) 0;
#X text 0 0 plugdatainfo <?xml version="1.0" encoding="UTF-8"?> <PlugDataInfo/>
;
#X coords 0 1 100 -1 1 1 1;
#X restore 0 0 graph;
#X obj 232 109 inlet;
#X obj 232 315 outlet;
#X obj 232 280 f 0;
#X msg 331 185 stop, f 6;
#X obj 232 147 t f b b;
#X obj 313 224 delay 100;
#X connect 1 0 5 0;
#X connect 3 0 2 0;
#X connect 4 0 6 0;
#X connect 5 0 3 1;
#X connect 5 1 6 0;
#X connect 5 2 4 0;
#X connect 6 0 3 0;
#X restore 475 206 pd landed;
#X connect 1 0 4 0;
#X connect 4 0 5 0;
#X connect 4 1 6 0;
#X connect 4 2 7 0;
#X connect 4 3 11 0;
#X connect 4 4 12 0;
#X connect 4 5 10 0;
#X connect 4 6 14 0;
#X connect 4 7 8 0;
#X connect 4 8 2 0;
#X connect 5 0 3 0;
#X connect 6 0 3 0;
#X connect 7 0 3 0;
#X connect 8 0 3 0;
#X connect 9 0 3 0;
#X connect 10 0 9 0;
#X connect 11 0 3 0;
#X connect 12 0 3 0;
#X connect 13 0 3 0;
#X connect 14 0 13 0;
#X restore 175 322 pd SendA;
#X obj 1102 552 router 4, f 19;
#N canvas 0 50 450 300 muteSend 1;
#N canvas 0 50 450 250 (subpatch) 0;
#X text 0 0 plugdatainfo <?xml version="1.0" encoding="UTF-8"?> <PlugDataInfo/>
;
#X coords 0 1 100 -1 1 1 1;
#X restore 0 0 graph;
#X obj 324 465 s oscmsg;
#X obj 322 416 oscformat -f i 00_KDFX channel mute;
#X obj 170 332 tabwrite muteState;
#X obj 170 228 tabread muteState;
#X obj 170 303 expr 1 - $f1;
#X obj 170 175 t b f f;
#X obj 170 265 t f f;
#X msg 334 254 set 00_KDFX channel mute, f 25;
#X msg 344 284 set 01_SDFX channel mute, f 25;
#X msg 354 314 set 02_HHFX channel mute, f 25;
#X msg 364 344 set bassFX channel mute, f 23;
#X msg 374 374 set samplerFX channel mute, f 26;
#X obj 360 200 sel 0 1 2 3 4;
#X obj 59 215 s drawMute;
#X obj 170 129 inlet;
#X obj 225 374 tgl 25 0 empty empty empty 17 7 0 10 #191919 #c8c8c8
#ffffff 0 1;
#X connect 2 0 1 0;
#X connect 4 0 7 0;
#X connect 5 0 3 0;
#X connect 5 0 16 0;
#X connect 6 0 14 0;
#X connect 6 1 4 0;
#X connect 6 2 3 1;
#X connect 6 2 13 0;
#X connect 7 0 5 0;
#X connect 8 0 2 0;
#X connect 9 0 2 0;
#X connect 10 0 2 0;
#X connect 11 0 2 0;
#X connect 12 0 2 0;
#X connect 13 0 8 0;
#X connect 13 1 9 0;
#X connect 13 2 10 0;
#X connect 13 3 11 0;
#X connect 13 4 12 0;
#X connect 15 0 6 0;
#X connect 16 0 2 0;
#X restore 1177 599 pd muteSend;
#N canvas 0 50 450 300 muteSelect 1;
#N canvas 0 50 450 250 (subpatch) 0;
#X text 0 0 plugdatainfo <?xml version="1.0" encoding="UTF-8"?> <PlugDataInfo/>
;
#X coords 0 1 100 -1 1 1 1;
#X restore 0 0 graph;
#X obj 191 201 sel 0 127, f 11;
#X msg 91 267 0, f 5;
#X msg 130 267 2, f 5;
#X obj 220 242 s drawMute;
#X obj 111 313 outlet;
#X obj 193 72 inlet;
#X obj 191 267 s drawPool;
#X connect 1 0 2 0;
#X connect 1 0 7 0;
#X connect 1 1 3 0;
#X connect 1 1 4 0;
#X connect 2 0 5 0;
#X connect 3 0 5 0;
#X connect 6 0 1 0;
#X restore 1399 453 pd muteSelect;
#N canvas 0 50 450 300 deleteSelect 1;
#N canvas 0 50 450 250 (subpatch) 0;
#X text 0 0 plugdatainfo <?xml version="1.0" encoding="UTF-8"?> <PlugDataInfo/>
;
#X coords 0 1 100 -1 1 1 1;
#X restore 0 0 graph;
#X obj 219 166 sel 0 127;
#X msg 212 254 0, f 5;
#X msg 251 254 1, f 5;
#X obj 219 100 inlet;
#X obj 235 297 outlet;
#X obj 118 209 s drawPool;
#X obj 297 209 s drawDelete;
#X connect 1 0 2 0;
#X connect 1 0 6 0;
#X connect 1 1 3 0;
#X connect 1 1 7 0;
#X connect 2 0 5 0;
#X connect 3 0 5 0;
#X connect 4 0 1 0;
#X restore 1287 453 pd deleteSelect;
#N canvas 0 50 450 300 sampleRequest 1;
#N canvas 0 50 450 250 (subpatch) 0;
#X text 0 0 plugdatainfo <?xml version="1.0" encoding="UTF-8"?> <PlugDataInfo/>
;
#X coords 0 1 100 -1 1 1 1;
#X restore 0 0 graph;
#X obj 222 144 inlet;
#X obj 222 184 sel 0 1 2 3 4 5 6 7, f 80;
#X obj 222 234 oscformat request 00_KD;
#X obj 232 264 oscformat variation 00_KD;
#X obj 412 264 oscformat variation 01_SD;
#X obj 402 234 oscformat request 01_SD;
#X obj 582 234 oscformat request 02_HH;
#X obj 592 264 oscformat variation 02_HH;
#X obj 526 341 s oscmsg;
#X obj 762 234 oscformat request sound_sample;
#X obj 772 264 oscformat variation sound_sample;
#X connect 1 0 2 0;
#X connect 2 0 3 0;
#X connect 2 1 4 0;
#X connect 2 2 6 0;
#X connect 2 3 5 0;
#X connect 2 4 7 0;
#X connect 2 5 8 0;
#X connect 2 6 10 0;
#X connect 2 7 11 0;
#X connect 3 0 9 0;
#X connect 4 0 9 0;
#X connect 5 0 9 0;
#X connect 6 0 9 0;
#X connect 7 0 9 0;
#X connect 8 0 9 0;
#X connect 10 0 9 0;
#X connect 11 0 9 0;
#X restore 1287 599 pd sampleRequest;
#X obj 87 204 nbx 4 21 -1e+37 1e+37 0 0 empty empty empty 0 -8 0 10
#e4e4e4 #5a5a5a #5a5a5a 0 256;
#X obj 147 204 nbx 4 21 -1e+37 1e+37 0 0 empty empty empty 0 -8 0 10
#e4e4e4 #5a5a5a #5a5a5a 0 256;
#N canvas 0 50 450 300 samplesSelect 1;
#N canvas 0 50 450 250 (subpatch) 0;
#X text 0 0 plugdatainfo <?xml version="1.0" encoding="UTF-8"?> <PlugDataInfo/>
;
#X coords 0 1 100 -1 1 1 1;
#X restore 0 0 graph;
#X obj 262 393 s led;
#X obj 219 166 sel 0 127;
#X msg 114 559 0, f 5;
#X msg 153 559 3, f 5;
#X obj 219 100 inlet;
#X obj 137 602 outlet;
#X obj 262 205 t b b b b;
#X msg 262 256 73 \, chan 1 \, red 3 \, green 0 \, 74 \, red 2, f
32;
#X msg 282 288 75 \, chan 1 \, red 3 \, green 1 \, 76 \, red 2, f
32;
#X msg 302 318 89 \, chan 1 \, red 3 \, green 2 \, 90 \, red 2, f
32;
#X msg 312 348 91 \, chan 1 \, red 1 \, green 3 \, 92 \, red 1 \, green
2, f 39;
#X obj 60 221 s drawPool;
#X connect 2 0 3 0;
#X connect 2 0 12 0;
#X connect 2 1 4 0;
#X connect 2 1 7 0;
#X connect 3 0 6 0;
#X connect 4 0 6 0;
#X connect 5 0 2 0;
#X connect 7 0 8 0;
#X connect 7 1 9 0;
#X connect 7 2 10 0;
#X connect 7 3 11 0;
#X connect 8 0 1 0;
#X connect 9 0 1 0;
#X connect 10 0 1 0;
#X connect 11 0 1 0;
#X restore 1507 453 pd samplesSelect;
#X obj 578 76 table pool 3;
#N canvas 0 50 450 300 pool 1;
#N canvas 0 50 450 250 (subpatch) 0;
#X text 0 0 plugdatainfo <?xml version="1.0" encoding="UTF-8"?> <PlugDataInfo/>
;
#X coords 0 1 100 -1 1 1 1;
#X restore 0 0 graph;
#X obj 54 48 r drawPool;
#X obj 209 48 r track;
#X obj 209 154 tabread pool;
#X obj 209 116 f;
#X obj 209 199 t f b;
#X obj 433 313 loop;
#X msg 433 237 8, f 5;
#X obj 433 347 tabread trackcontrol;
#X msg 433 378 \$1 \, chan 1 \, red 0 \, green 0, f 24;
#X obj 328 430 s led;
#X text 483 312 clear row;
#X obj 209 237 min 8;
#X obj 209 318 loop;
#X obj 209 347 tabread trackcontrol;
#X msg 209 378 \$1 \, chan 1 \, red 3 \, green 1, f 23;
#X obj 177 274 route 0;
#X obj 285 194 nbx 4 21 -1e+37 1e+37 0 0 empty empty empty 0 -8 0 10
#191919 #ffffff #ffffff 0 256;
#X obj 54 80 t b;
#X obj 739 48 r track;
#X obj 739 154 tabread pool;
#X obj 739 116 f;
#X obj 739 199 t f b;
#X obj 963 313 loop;
#X msg 963 237 8, f 5;
#X obj 963 347 tabread trackcontrol;
#X msg 963 378 \$1 \, chan 1 \, red 0 \, green 0, f 24;
#X obj 858 430 s led;
#X text 1013 312 clear row;
#X obj 739 237 min 8;
#X obj 739 318 loop;
#X obj 739 347 tabread trackcontrol;
#X msg 739 378 \$1 \, chan 1 \, red 3 \, green 0, f 24;
#X obj 707 274 route 0;
#X obj 815 194 nbx 4 21 -1e+37 1e+37 0 0 empty empty empty 0 -8 0 10
#191919 #ffffff #ffffff 0 256;
#X obj 584 80 t b;
#X obj 584 48 r drawDelete;
#X connect 1 0 18 0;
#X connect 2 0 4 0;
#X connect 3 0 17 0;
#X connect 3 0 5 0;
#X connect 4 0 3 0;
#X connect 5 0 12 0;
#X connect 5 1 7 0;
#X connect 6 0 8 0;
#X connect 7 0 6 0;
#X connect 8 0 9 0;
#X connect 9 0 10 0;
#X connect 12 0 16 0;
#X connect 13 0 14 0;
#X connect 14 0 15 0;
#X connect 15 0 10 0;
#X connect 16 1 13 0;
#X connect 18 0 4 0;
#X connect 19 0 21 0;
#X connect 20 0 34 0;
#X connect 20 0 22 0;
#X connect 21 0 20 0;
#X connect 22 0 29 0;
#X connect 22 1 24 0;
#X connect 23 0 25 0;
#X connect 24 0 23 0;
#X connect 25 0 26 0;
#X connect 26 0 27 0;
#X connect 29 0 33 0;
#X connect 30 0 31 0;
#X connect 31 0 32 0;
#X connect 32 0 27 0;
#X connect 33 1 30 0;
#X connect 35 0 21 0;
#X connect 36 0 35 0;
#X restore 718 46 pd pool;
#X obj 735 557 s track;
#N canvas 0 50 450 300 oscIn 1;
#N canvas 0 50 450 250 (subpatch) 0;
#X text 0 0 plugdatainfo <?xml version="1.0" encoding="UTF-8"?> <PlugDataInfo/>
;
#X coords 0 1 100 -1 1 1 1;
#X restore 0 0 graph;
#X msg 46 79 listen 9129, f 11;
#X obj 46 109 netreceive -u -b;
#X obj 46 141 oscparse;
#X obj 46 172 list trim;
#X obj 46 208 route drum bass sampler;
#X obj 46 43 loadbang;
#X obj 46 238 route pool;
#X msg 46 273 \; pool 0 \$1 \; drawPool bang, f 15;
#X obj 166 238 route pool;
#X msg 166 273 \; pool 1 \$1 \; drawPool bang, f 27;
#X obj 286 238 route pool;
#X msg 286 273 \; pool 2 \$1 \; drawPool bang, f 27;
#X connect 1 0 2 0;
#X connect 2 0 3 0;
#X connect 3 0 4 0;
#X connect 4 0 5 0;
#X connect 5 0 7 0;
#X connect 5 1 9 0;
#X connect 5 2 11 0;
#X connect 6 0 1 0;
#X connect 7 0 8 0;
#X connect 9 0 10 0;
#X connect 11 0 12 0;
#X restore 1121 56 pd oscIn;
#X connect 4 0 3 0;
#X connect 6 0 32 0;
#X connect 7 0 32 0;
#X connect 8 0 7 0;
#X connect 9 0 10 0;
#X connect 9 0 24 0;
#X connect 10 0 11 0;
#X connect 10 0 116 0;
#X connect 10 1 12 1;
#X connect 10 1 115 0;
#X connect 11 0 12 0;
#X connect 12 0 13 0;
#X connect 12 1 13 1;
#X connect 13 0 19 0;
#X connect 19 0 34 0;
#X connect 19 1 109 0;
#X connect 20 0 34 0;
#X connect 20 1 47 0;
#X connect 23 0 25 0;
#X connect 24 0 21 0;
#X connect 24 0 23 0;
#X connect 24 1 22 0;
#X connect 24 1 23 1;
#X connect 25 0 87 0;
#X connect 25 1 88 0;
#X connect 25 2 89 0;
#X connect 25 3 90 0;
#X connect 25 6 102 0;
#X connect 25 7 98 0;
#X connect 25 8 26 0;
#X connect 26 0 67 0;
#X connect 26 1 71 0;
#X connect 26 2 72 0;
#X connect 26 3 73 0;
#X connect 26 4 74 0;
#X connect 26 5 75 0;
#X connect 26 6 76 0;
#X connect 26 7 77 0;
#X connect 26 8 29 0;
#X connect 29 0 113 0;
#X connect 29 1 112 0;
#X connect 29 3 117 0;
#X connect 29 4 59 0;
#X connect 31 0 35 0;
#X connect 33 0 32 0;
#X connect 38 0 48 0;
#X connect 38 0 46 1;
#X connect 38 0 120 0;
#X connect 39 0 41 0;
#X connect 40 0 49 0;
#X connect 41 0 46 0;
#X connect 41 1 42 0;
#X connect 42 0 40 1;
#X connect 43 0 40 1;
#X connect 44 0 45 0;
#X connect 45 0 46 0;
#X connect 45 1 43 0;
#X connect 46 0 40 0;
#X connect 47 0 39 0;
#X connect 47 1 44 0;
#X connect 47 4 58 0;
#X connect 48 0 50 0;
#X connect 49 0 38 0;
#X connect 50 0 51 0;
#X connect 50 0 54 0;
#X connect 50 0 78 0;
#X connect 50 0 81 0;
#X connect 50 0 84 0;
#X connect 50 0 99 0;
#X connect 50 1 52 0;
#X connect 50 1 55 0;
#X connect 50 1 79 0;
#X connect 50 1 82 0;
#X connect 50 1 85 0;
#X connect 50 1 100 0;
#X connect 50 2 53 0;
#X connect 50 2 56 0;
#X connect 50 2 80 0;
#X connect 50 2 83 0;
#X connect 50 2 86 0;
#X connect 50 2 101 0;
#X connect 51 0 31 0;
#X connect 52 0 31 0;
#X connect 53 0 31 0;
#X connect 54 0 57 0;
#X connect 55 0 57 0;
#X connect 56 0 57 0;
#X connect 60 0 68 0;
#X connect 61 0 110 0;
#X connect 62 0 110 0;
#X connect 63 0 110 0;
#X connect 64 0 110 0;
#X connect 65 0 110 0;
#X connect 66 0 110 0;
#X connect 67 1 61 0;
#X connect 69 0 110 0;
#X connect 70 0 110 0;
#X connect 71 1 62 0;
#X connect 72 1 63 0;
#X connect 73 1 64 0;
#X connect 74 1 65 0;
#X connect 75 1 66 0;
#X connect 76 1 69 0;
#X connect 77 1 70 0;
#X connect 78 0 60 0;
#X connect 79 0 60 0;
#X connect 80 0 60 0;
#X connect 81 0 92 0;
#X connect 82 0 92 0;
#X connect 83 0 92 0;
#X connect 84 0 91 0;
#X connect 85 0 91 0;
#X connect 86 0 91 0;
#X connect 87 1 93 0;
#X connect 88 1 94 0;
#X connect 89 1 95 0;
#X connect 90 1 96 0;
#X connect 91 0 97 0;
#X connect 92 0 68 0;
#X connect 93 0 91 0;
#X connect 94 0 91 0;
#X connect 95 0 91 0;
#X connect 96 0 91 0;
#X connect 98 1 31 0;
#X connect 99 0 103 0;
#X connect 100 0 103 0;
#X connect 101 0 103 0;
#X connect 102 1 103 0;
#X connect 103 0 35 0;
#X connect 108 0 34 0;
#X connect 108 1 20 0;
#X connect 109 0 34 0;
#X connect 109 1 108 0;
#X connect 110 0 60 0;
#X connect 110 1 92 0;
#X connect 110 2 111 0;
#X connect 110 3 114 0;
#X connect 112 0 110 1;
#X connect 113 0 110 1;
#X connect 117 0 110 1;
