#N canvas 827 239 527 327 12;
#N canvas 0 50 450 250 (subpatch) 0;
#X text 0 0 plugdatainfo <?xml version="1.0" encoding="UTF-8"?> <PlugDataInfo/>
;
#X coords 0 1 100 -1 1 1 1;
#X restore 0 0 graph;
#X obj 356 901 netsend -u -b;
#X obj 85 534 vsl 35 61 0 1 0 0 empty empty empty 0 -9 0 10 #e4e4e4
#828282 #5a5a5a 0 1;
#X msg 442 855 disconnect, f 12;
#X msg 419 822 connect localhost 9129, f 22;
#X obj 85 606 oscformat -f f masterFX filter frequency, f 15;
#X obj 187 96 ctlin, f 12;
#X obj 419 788 loadbang;
#X obj 187 209 swap;
#X obj 93 151 rescale 0 127 0 1;
#X obj 199 256 pack;
#X obj 199 311 route 25 26 27 28 29 30 31 32;
#X obj 205 534 vsl 35 61 0 1 0 0 empty empty empty 0 -9 0 10 #e4e4e4
#828282 #5a5a5a 0 1;
#X obj 205 606 oscformat -f f masterFX filter frequency, f 15;
#X obj 325 534 vsl 35 61 0 1 0 0 empty empty empty 0 -9 0 10 #e4e4e4
#828282 #5a5a5a 0 1;
#X obj 325 606 oscformat -f f masterFX filter frequency, f 15;
#X obj 445 534 vsl 35 61 0 1 0 0 empty empty empty 0 -9 0 10 #e4e4e4
#828282 #5a5a5a 0 1;
#X obj 445 606 oscformat -f f masterFX filter frequency, f 15;
#X obj 565 534 vsl 35 61 0 1 0 0 empty empty empty 0 -9 0 10 #e4e4e4
#828282 #5a5a5a 0 1;
#X obj 565 606 oscformat -f f masterFX filter frequency, f 15;
#X obj 685 534 vsl 35 61 0 1 0 0 empty empty empty 0 -9 0 10 #e4e4e4
#828282 #5a5a5a 0 1;
#X obj 685 606 oscformat -f f masterFX filter frequency, f 15;
#X obj 805 534 vsl 35 61 0 1 0 0 empty empty empty 0 -9 0 10 #e4e4e4
#828282 #5a5a5a 0 1;
#X obj 805 606 oscformat -f f masterFX filter frequency, f 15;
#X obj 925 534 vsl 35 61 0 1 0 0 empty empty empty 0 -9 0 10 #e4e4e4
#828282 #5a5a5a 0 1;
#X obj 925 606 oscformat -f f bass q, f 10;
#X connect 2 0 5 0;
#X connect 3 0 1 0;
#X connect 4 0 1 0;
#X connect 5 0 1 0;
#X connect 6 0 9 0;
#X connect 6 1 8 1;
#X connect 7 0 4 0;
#X connect 8 0 10 0;
#X connect 8 1 10 1;
#X connect 9 0 8 0;
#X connect 10 0 11 0;
#X connect 11 0 2 0;
#X connect 11 1 12 0;
#X connect 11 2 14 0;
#X connect 11 3 16 0;
#X connect 11 4 18 0;
#X connect 11 5 20 0;
#X connect 11 6 22 0;
#X connect 11 7 24 0;
#X connect 12 0 13 0;
#X connect 14 0 15 0;
#X connect 16 0 17 0;
#X connect 18 0 19 0;
#X connect 20 0 21 0;
#X connect 22 0 23 0;
#X connect 24 0 25 0;
