#N canvas 827 239 527 327 12;
#N canvas 0 50 450 250 (subpatch) 0;
#X text 0 0 plugdatainfo <?xml version="1.0" encoding="UTF-8"?> <PlugDataInfo/>
;
#X coords 0 1 100 -1 1 1 1;
#X restore 0 0 graph;
#X obj 361 801 netsend -u -b;
#X obj 80 338 vsl 35 61 0 1 0 0 empty empty empty 0 -9 0 10 #e4e4e4
#828282 #5a5a5a 0 1;
#X msg 600 821 disconnect, f 12;
#X msg 577 788 connect localhost 9200, f 22;
#X obj 187 96 ctlin, f 12;
#X obj 577 754 loadbang;
#X obj 222 144 swap;
#X obj 93 151 rescale 0 127 0 1;
#X obj 234 191 pack;
#X obj 151 242 route 25 26 27 28 29 30 31 32;
#X obj 200 338 vsl 35 61 0 1 0 0 empty empty empty 0 -9 0 10 #e4e4e4
#828282 #5a5a5a 0 1;
#X obj 320 338 vsl 35 61 0 1 0 0 empty empty empty 0 -9 0 10 #e4e4e4
#828282 #5a5a5a 0 1;
#X obj 440 338 vsl 35 61 0 1 0 0 empty empty empty 0 -9 0 10 #e4e4e4
#828282 #5a5a5a 0 1;
#X obj 560 338 vsl 35 61 0 1 0 0 empty empty empty 0 -9 0 10 #e4e4e4
#828282 #5a5a5a 0 1;
#X obj 518 442 oscformat -f f masterFX filter frequency, f 15;
#X obj 680 338 vsl 35 61 0 1 0 0 empty empty empty 0 -9 0 10 #e4e4e4
#828282 #5a5a5a 0 1;
#X obj 800 338 vsl 35 61 0 1 0 0 empty empty empty 0 -9 0 10 #e4e4e4
#828282 #5a5a5a 0 1;
#X obj 920 338 vsl 35 61 0 1 0 0 empty empty empty 0 -9 0 10 #e4e4e4
#828282 #5a5a5a 0 1;
#X obj 878 442 oscformat -f f bass octaves, f 10;
#X obj 507 95 rampnoise;
#X obj 91 301 r \$0-k1;
#X obj 198 307 r \$0-k2;
#X obj 318 306 r \$0-k3;
#X obj 440 307 r \$0-k4;
#X obj 552 307 r \$0-k5;
#X obj 669 309 r \$0-k6;
#X obj 796 309 r \$0-k7;
#X obj 920 307 r \$0-k8;
#X obj 541 122 hsl 73 18 0.1 3 0 0 empty empty empty -2 -8 0 10 #191919
#c8c8c8 #ffffff 0 1;
#X obj 509 124 vsl 22 61 0 127 0 0 empty empty empty 0 -9 0 10 #191919
#c8c8c8 #ffffff 0 1;
#X obj 661 129 vsl 21 61 0 127 0 0 empty empty empty 0 -9 0 10 #191919
#c8c8c8 #ffffff 0 1;
#X obj 658 100 stepnoise;
#X obj 701 137 hsl 73 18 0.5 3 0 0 empty empty empty -2 -8 0 10 #191919
#c8c8c8 #ffffff 0 1;
#X obj 820 122 vsl 21 61 0 127 0 0 empty empty empty 0 -9 0 10 #191919
#c8c8c8 #ffffff 0 1;
#X obj 849 127 hsl 73 18 0.1 0.5 0 0 empty empty empty -2 -8 0 10 #191919
#c8c8c8 #ffffff 0 1;
#X obj 963 126 vsl 21 61 0 127 0 0 empty empty empty 0 -9 0 10 #191919
#c8c8c8 #ffffff 0 1;
#X obj 999 132 hsl 73 18 0.1 0.5 0 0 empty empty empty -2 -8 0 10 #191919
#c8c8c8 #ffffff 0 1;
#X obj 960 97 lfo -tri;
#X obj 817 93 lfo -sine;
#X obj 1115 130 vsl 21 61 0 127 0 0 empty empty empty 0 -9 0 10 #191919
#c8c8c8 #ffffff 0 1;
#X obj 1145 134 hsl 73 18 0.1 0.5 0 0 empty empty empty -2 -8 0 10
#191919 #c8c8c8 #ffffff 0 1;
#X obj 1110 102 lfo -saw;
#X obj 539 151 hsl 48 16 0 1 0 0 empty empty empty -2 -8 0 10 #191919
#c8c8c8 #ffffff 0 1;
#X obj 539 171 hsl 48 16 0 1 0 0 empty empty empty -2 -8 0 10 #191919
#c8c8c8 #ffffff 0 1;
#X obj 593 150 nbx 4 21 -1e+37 1e+37 0 0 empty empty empty 0 -8 0 10
#191919 #ffffff #ffffff 0 256;
#X obj 593 170 nbx 4 21 -1e+37 1e+37 0 0 empty empty empty 0 -8 0 10
#191919 #ffffff #ffffff 0 256;
#X text 71 278 K1, f 9;
#X text 197 283 K2, f 9;
#X text 317 289 K3, f 9;
#X text 440 291 K4, f 9;
#X text 558 289 K5, f 9;
#X text 678 289 K6, f 9;
#X text 918 289 K8, f 9;
#X obj 497 210 rescale 0 1;
#X obj 689 159 hsl 48 16 0 1 0 0 empty empty empty -2 -8 0 10 #191919
#c8c8c8 #ffffff 0 1;
#X obj 689 179 hsl 48 16 0 1 0 0 empty empty empty -2 -8 0 10 #191919
#c8c8c8 #ffffff 0 1;
#X obj 743 158 nbx 4 21 -1e+37 1e+37 0 0 empty empty empty 0 -8 0 10
#191919 #ffffff #ffffff 0 256;
#X obj 743 178 nbx 4 21 -1e+37 1e+37 0 0 empty empty empty 0 -8 0 10
#191919 #ffffff #ffffff 0 256;
#X obj 621 211 rescale 0 1;
#X obj 498 235 s \$0-rn;
#X obj 623 239 s \$0-sn;
#X obj 764 244 s \$0-sin;
#X obj 914 254 s \$0-tri;
#X obj 1092 255 s \$0-saw;
#X obj 851 155 hsl 48 16 0 1 0 0 empty empty empty -2 -8 0 10 #191919
#c8c8c8 #ffffff 0 1;
#X obj 851 175 hsl 48 16 0 1 0 0 empty empty empty -2 -8 0 10 #191919
#c8c8c8 #ffffff 0 1;
#X obj 905 154 nbx 4 21 -1e+37 1e+37 0 0 empty empty empty 0 -8 0 10
#191919 #ffffff #ffffff 0 256;
#X obj 905 174 nbx 4 21 -1e+37 1e+37 0 0 empty empty empty 0 -8 0 10
#191919 #ffffff #ffffff 0 256;
#X obj 764 210 rescale 0 1;
#X obj 1000 161 hsl 48 16 0 1 0 0 empty empty empty -2 -8 0 10 #191919
#c8c8c8 #ffffff 0 1;
#X obj 1000 181 hsl 48 16 0 1 0 0 empty empty empty -2 -8 0 10 #191919
#c8c8c8 #ffffff 0 1;
#X obj 1054 160 nbx 4 21 -1e+37 1e+37 0 0 empty empty empty 0 -8 0
10 #191919 #ffffff #ffffff 0 256;
#X obj 1054 180 nbx 4 21 -1e+37 1e+37 0 0 empty empty empty 0 -8 0
10 #191919 #ffffff #ffffff 0 256;
#X obj 910 218 rescale 0 1;
#X obj 1153 161 hsl 48 16 0 1 0 0 empty empty empty -2 -8 0 10 #191919
#c8c8c8 #ffffff 0 1;
#X obj 1153 181 hsl 48 16 0 1 0 0 empty empty empty -2 -8 0 10 #191919
#c8c8c8 #ffffff 0 1;
#X obj 1207 160 nbx 4 21 -1e+37 1e+37 0 0 empty empty empty 0 -8 0
10 #191919 #ffffff #ffffff 0 256;
#X obj 1207 180 nbx 4 21 -1e+37 1e+37 0 0 empty empty empty 0 -8 0
10 #191919 #ffffff #ffffff 0 256;
#X obj 1091 218 rescale 0 1;
#N canvas 733 172 450 300 mod_sel 1;
#X obj 256 96 vradio 20 1 0 6 empty empty empty 0 -8 0 10 #191919 #c8c8c8
#ffffff 0;
#X obj 65 215 selector 6 0;
#X obj 92 108 r \$0-rn;
#X obj 102 138 r \$0-sn;
#X obj 172 138 r \$0-tri;
#X obj 162 108 r \$0-sin;
#X obj 182 168 r \$0-saw;
#N canvas 0 50 450 250 (subpatch) 0;
#X text 0 0 plugdatainfo <?xml version="1.0" encoding="UTF-8"?> <PlugDataInfo/>
;
#X coords 0 1 100 -1 1 1 1;
#X restore 0 0 graph;
#X obj 46 142 inlet;
#X obj 58 265 outlet;
#X connect 0 0 1 6;
#X connect 1 0 9 0;
#X connect 2 0 1 1;
#X connect 3 0 1 2;
#X connect 4 0 1 4;
#X connect 5 0 1 3;
#X connect 6 0 1 5;
#X connect 8 0 1 0;
#X coords 0 0 1 1 30 134 2 252 91;
#X restore 36 283 pd mod_sel;
#N canvas 733 172 450 300 mod_sel 1;
#X obj 256 96 vradio 20 1 0 6 empty empty empty 0 -8 0 10 #191919 #c8c8c8
#ffffff 0;
#X obj 65 215 selector 6 0;
#X obj 92 108 r \$0-rn;
#X obj 102 138 r \$0-sn;
#X obj 172 138 r \$0-tri;
#X obj 162 108 r \$0-sin;
#X obj 182 168 r \$0-saw;
#N canvas 0 50 450 250 (subpatch) 0;
#X text 0 0 plugdatainfo <?xml version="1.0" encoding="UTF-8"?> <PlugDataInfo/>
;
#X coords 0 1 100 -1 1 1 1;
#X restore 0 0 graph;
#X obj 46 142 inlet;
#X obj 58 265 outlet;
#X connect 0 0 1 6;
#X connect 1 0 9 0;
#X connect 2 0 1 1;
#X connect 3 0 1 2;
#X connect 4 0 1 4;
#X connect 5 0 1 3;
#X connect 6 0 1 5;
#X connect 8 0 1 0;
#X coords 0 0 1 1 30 134 2 252 91;
#X restore 158 281 pd mod_sel;
#N canvas 733 172 450 300 mod_sel 1;
#X obj 256 96 vradio 20 1 0 6 empty empty empty 0 -8 0 10 #191919 #c8c8c8
#ffffff 0;
#X obj 65 215 selector 6 0;
#X obj 92 108 r \$0-rn;
#X obj 102 138 r \$0-sn;
#X obj 172 138 r \$0-tri;
#X obj 162 108 r \$0-sin;
#X obj 182 168 r \$0-saw;
#N canvas 0 50 450 250 (subpatch) 0;
#X text 0 0 plugdatainfo <?xml version="1.0" encoding="UTF-8"?> <PlugDataInfo/>
;
#X coords 0 1 100 -1 1 1 1;
#X restore 0 0 graph;
#X obj 46 142 inlet;
#X obj 58 265 outlet;
#X connect 0 0 1 6;
#X connect 1 0 9 0;
#X connect 2 0 1 1;
#X connect 3 0 1 2;
#X connect 4 0 1 4;
#X connect 5 0 1 3;
#X connect 6 0 1 5;
#X connect 8 0 1 0;
#X coords 0 0 1 1 30 134 2 252 91;
#X restore 278 287 pd mod_sel;
#N canvas 733 172 450 300 mod_sel 1;
#X obj 256 96 vradio 20 1 0 6 empty empty empty 0 -8 0 10 #191919 #c8c8c8
#ffffff 0;
#X obj 65 215 selector 6 0;
#X obj 92 108 r \$0-rn;
#X obj 102 138 r \$0-sn;
#X obj 172 138 r \$0-tri;
#X obj 162 108 r \$0-sin;
#X obj 182 168 r \$0-saw;
#N canvas 0 50 450 250 (subpatch) 0;
#X text 0 0 plugdatainfo <?xml version="1.0" encoding="UTF-8"?> <PlugDataInfo/>
;
#X coords 0 1 100 -1 1 1 1;
#X restore 0 0 graph;
#X obj 46 142 inlet;
#X obj 58 265 outlet;
#X connect 0 0 1 6;
#X connect 1 0 9 0;
#X connect 2 0 1 1;
#X connect 3 0 1 2;
#X connect 4 0 1 4;
#X connect 5 0 1 3;
#X connect 6 0 1 5;
#X connect 8 0 1 0;
#X coords 0 0 1 1 30 134 2 252 91;
#X restore 401 289 pd mod_sel;
#X text 798 289 K7, f 9;
#N canvas 733 172 450 300 mod_sel 1;
#X obj 256 96 vradio 20 1 0 6 empty empty empty 0 -8 0 10 #191919 #c8c8c8
#ffffff 0;
#X obj 65 215 selector 6 0;
#X obj 92 108 r \$0-rn;
#X obj 102 138 r \$0-sn;
#X obj 172 138 r \$0-tri;
#X obj 162 108 r \$0-sin;
#X obj 182 168 r \$0-saw;
#N canvas 0 50 450 250 (subpatch) 0;
#X text 0 0 plugdatainfo <?xml version="1.0" encoding="UTF-8"?> <PlugDataInfo/>
;
#X coords 0 1 100 -1 1 1 1;
#X restore 0 0 graph;
#X obj 46 142 inlet;
#X obj 58 265 outlet;
#X connect 0 0 1 6;
#X connect 1 0 9 0;
#X connect 2 0 1 1;
#X connect 3 0 1 2;
#X connect 4 0 1 4;
#X connect 5 0 1 3;
#X connect 6 0 1 5;
#X connect 8 0 1 0;
#X coords 0 0 1 1 30 134 2 252 91;
#X restore 515 286 pd mod_sel;
#N canvas 733 172 450 300 mod_sel 1;
#X obj 256 96 vradio 20 1 0 6 empty empty empty 0 -8 0 10 #191919 #c8c8c8
#ffffff 0;
#X obj 65 215 selector 6 0;
#X obj 92 108 r \$0-rn;
#X obj 102 138 r \$0-sn;
#X obj 172 138 r \$0-tri;
#X obj 162 108 r \$0-sin;
#X obj 182 168 r \$0-saw;
#N canvas 0 50 450 250 (subpatch) 0;
#X text 0 0 plugdatainfo <?xml version="1.0" encoding="UTF-8"?> <PlugDataInfo/>
;
#X coords 0 1 100 -1 1 1 1;
#X restore 0 0 graph;
#X obj 46 142 inlet;
#X obj 58 265 outlet;
#X connect 0 0 1 6;
#X connect 1 0 9 0;
#X connect 2 0 1 1;
#X connect 3 0 1 2;
#X connect 4 0 1 4;
#X connect 5 0 1 3;
#X connect 6 0 1 5;
#X connect 8 0 1 0;
#X coords 0 0 1 1 30 134 2 252 91;
#X restore 637 285 pd mod_sel;
#N canvas 733 172 450 300 mod_sel 1;
#X obj 256 96 vradio 20 1 0 6 empty empty empty 0 -8 0 10 #191919 #c8c8c8
#ffffff 0;
#X obj 65 215 selector 6 0;
#X obj 92 108 r \$0-rn;
#X obj 102 138 r \$0-sn;
#X obj 172 138 r \$0-tri;
#X obj 162 108 r \$0-sin;
#X obj 182 168 r \$0-saw;
#N canvas 0 50 450 250 (subpatch) 0;
#X text 0 0 plugdatainfo <?xml version="1.0" encoding="UTF-8"?> <PlugDataInfo/>
;
#X coords 0 1 100 -1 1 1 1;
#X restore 0 0 graph;
#X obj 46 142 inlet;
#X obj 58 265 outlet;
#X connect 0 0 1 6;
#X connect 1 0 9 0;
#X connect 2 0 1 1;
#X connect 3 0 1 2;
#X connect 4 0 1 4;
#X connect 5 0 1 3;
#X connect 6 0 1 5;
#X connect 8 0 1 0;
#X coords 0 0 1 1 30 134 2 252 91;
#X restore 748 288 pd mod_sel;
#N canvas 733 172 450 300 mod_sel 1;
#X obj 256 96 vradio 20 1 0 6 empty empty empty 0 -8 0 10 #191919 #c8c8c8
#ffffff 0;
#X obj 65 215 selector 6 0;
#X obj 92 108 r \$0-rn;
#X obj 102 138 r \$0-sn;
#X obj 172 138 r \$0-tri;
#X obj 162 108 r \$0-sin;
#X obj 182 168 r \$0-saw;
#N canvas 0 50 450 250 (subpatch) 0;
#X text 0 0 plugdatainfo <?xml version="1.0" encoding="UTF-8"?> <PlugDataInfo/>
;
#X coords 0 1 100 -1 1 1 1;
#X restore 0 0 graph;
#X obj 46 142 inlet;
#X obj 58 265 outlet;
#X connect 0 0 1 6;
#X connect 1 0 9 0;
#X connect 2 0 1 1;
#X connect 3 0 1 2;
#X connect 4 0 1 4;
#X connect 5 0 1 3;
#X connect 6 0 1 5;
#X connect 8 0 1 0;
#X coords 0 0 1 1 30 134 2 252 91;
#X restore 872 285 pd mod_sel;
#X text 520 66 ramp noise;
#X text 670 66 step noise;
#X text 840 63 sine;
#X text 988 67 tri;
#X text 1137 73 saw;
#X obj 15 444 oscformat -f f drums threshold, f 15;
#X obj 758 442 oscformat -f f samplerFX vol pan, f 15;
#X obj 638 442 oscformat -f f bassFX vol pan, f 15;
#X obj 134 444 oscformat -f f 00_KDFX vol volume, f 17;
#X obj 135 500 oscformat -f f 01_SDFX vol volume, f 17;
#X obj 135 550 oscformat -f f 02_HHFX vol volume, f 17;
#X obj 267 446 oscformat -f f bassFX vol volume, f 15;
#X obj 380 445 oscformat -f f samplerFX vol volume, f 17;
#X obj 1130 393 bng 25 250 50 0 empty empty empty 17 7 0 10 #191919
#c8c8c8 #ffffff;
#X obj 1130 420 openpanel;
#X msg 1155 575 open \$1, f 9;
#X obj 1133 612 readsf~;
#X obj 1082 666 out~;
#X obj 1077 425 tgl 25 0 empty empty empty 17 7 0 10 #191919 #c8c8c8
#ffffff 0 1;
#X obj 1075 466 t a b;
#X obj 1146 512 symbol;
#X obj 1308 393 bng 25 250 50 0 empty empty empty 17 7 0 10 #191919
#c8c8c8 #ffffff;
#X obj 1308 420 openpanel;
#X msg 1333 575 open \$1, f 9;
#X obj 1311 612 readsf~;
#X obj 1260 666 out~;
#X obj 1255 425 tgl 25 0 empty empty empty 17 7 0 10 #191919 #c8c8c8
#ffffff 0 1;
#X obj 1253 466 t a b;
#X obj 1324 512 symbol;
#X symbolatom 699 728 80 0 0 0 empty - - 0;
#X symbolatom 967 790 74 0 0 0 empty - - 0;
#X connect 2 0 94 0;
#X connect 3 0 1 0;
#X connect 4 0 1 0;
#X connect 5 0 8 0;
#X connect 5 1 7 1;
#X connect 6 0 4 0;
#X connect 7 0 9 0;
#X connect 7 1 9 1;
#X connect 8 0 7 0;
#X connect 9 0 10 0;
#X connect 10 0 80 0;
#X connect 10 1 81 0;
#X connect 10 2 82 0;
#X connect 10 3 83 0;
#X connect 10 4 85 0;
#X connect 10 5 86 0;
#X connect 10 6 87 0;
#X connect 10 7 88 0;
#X connect 11 0 97 0;
#X connect 11 0 98 0;
#X connect 11 0 99 0;
#X connect 12 0 100 0;
#X connect 13 0 101 0;
#X connect 14 0 15 0;
#X connect 15 0 1 0;
#X connect 16 0 96 0;
#X connect 17 0 95 0;
#X connect 18 0 19 0;
#X connect 19 0 1 0;
#X connect 20 0 30 0;
#X connect 21 0 2 0;
#X connect 22 0 11 0;
#X connect 23 0 12 0;
#X connect 24 0 13 0;
#X connect 25 0 14 0;
#X connect 26 0 16 0;
#X connect 27 0 17 0;
#X connect 28 0 18 0;
#X connect 29 0 20 0;
#X connect 30 0 54 0;
#X connect 31 0 59 0;
#X connect 32 0 31 0;
#X connect 33 0 32 0;
#X connect 34 0 69 0;
#X connect 35 0 39 0;
#X connect 36 0 74 0;
#X connect 37 0 38 0;
#X connect 38 0 36 0;
#X connect 39 0 34 0;
#X connect 40 0 79 0;
#X connect 41 0 42 0;
#X connect 42 0 40 0;
#X connect 43 0 45 0;
#X connect 43 0 54 1;
#X connect 44 0 46 0;
#X connect 44 0 54 2;
#X connect 54 0 60 0;
#X connect 55 0 57 0;
#X connect 55 0 59 1;
#X connect 56 0 58 0;
#X connect 56 0 59 2;
#X connect 59 0 61 0;
#X connect 65 0 67 0;
#X connect 65 0 69 1;
#X connect 66 0 68 0;
#X connect 66 0 69 2;
#X connect 69 0 62 0;
#X connect 70 0 74 1;
#X connect 70 0 72 0;
#X connect 71 0 74 2;
#X connect 71 0 73 0;
#X connect 74 0 63 0;
#X connect 75 0 77 0;
#X connect 75 0 79 1;
#X connect 76 0 78 0;
#X connect 76 0 79 2;
#X connect 79 0 64 0;
#X connect 80 0 2 0;
#X connect 81 0 11 0;
#X connect 82 0 12 0;
#X connect 83 0 13 0;
#X connect 85 0 14 0;
#X connect 86 0 16 0;
#X connect 87 0 17 0;
#X connect 88 0 18 0;
#X connect 94 0 1 0;
#X connect 95 0 1 0;
#X connect 96 0 1 0;
#X connect 97 0 1 0;
#X connect 98 0 1 0;
#X connect 99 0 1 0;
#X connect 100 0 1 0;
#X connect 101 0 1 0;
#X connect 102 0 103 0;
#X connect 103 0 109 0;
#X connect 104 0 105 0;
#X connect 105 0 106 0;
#X connect 105 0 106 1;
#X connect 107 0 108 0;
#X connect 108 0 105 0;
#X connect 108 1 109 0;
#X connect 109 0 104 0;
#X connect 109 0 118 0;
#X connect 110 0 111 0;
#X connect 111 0 117 0;
#X connect 112 0 113 0;
#X connect 113 0 114 0;
#X connect 113 0 114 1;
#X connect 115 0 116 0;
#X connect 116 0 113 0;
#X connect 116 1 117 0;
#X connect 117 0 112 0;
#X connect 117 0 119 0;
