#N canvas 827 239 527 327 12;
#N canvas 0 50 450 250 (subpatch) 0;
#X text 0 0 plugdatainfo <?xml version="1.0" encoding="UTF-8"?> <PlugDataInfo/>
;
#X coords 0 1 100 -1 1 1 1;
#X restore 0 0 graph;
#X obj 378 105 loadbang;
#X msg 378 139 listen 9129, f 11;
#X obj 378 169 netreceive -u -b;
#X obj 378 201 oscparse;
#X obj 378 232 list trim;
#X obj 378 269 route audio test;
#X text 177 78 WAIVE-Online OSC Reciever;
#X obj 378 350 route bpm transport playing drum bass sound;
#X obj 419 308 print TEST;
#X obj 509 308 print UNKOWN;
#X obj 207 422 fromsymbol;
#X obj 207 455 nbx 6 25 -1e+37 1e+37 0 0 empty empty empty 0 -8 0 10
#e4e4e4 #5a5a5a #5a5a5a 0 256;
#X text 218 486 BPM;
#X obj 312 422 unpack f f f;
#X obj 297 455 nbx 3 25 -1e+37 1e+37 0 0 empty empty empty 0 -8 0 10
#e4e4e4 #5a5a5a #5a5a5a 0 256;
#X obj 337 455 nbx 3 26 -1e+37 1e+37 0 0 empty empty empty 0 -8 0 10
#e4e4e4 #5a5a5a #5a5a5a 0 256;
#X obj 377 455 nbx 3 26 -1e+37 1e+37 0 0 empty empty empty 0 -8 0 10
#e4e4e4 #5a5a5a #5a5a5a 0 256;
#X text 304 570 TRANSPORT;
#X obj 442 417 fromsymbol;
#X obj 442 455 tgl 26 0 empty empty empty 17 7 0 10 #e4e4e4 #828282
#5a5a5a 0 1;
#X text 420 486 PLAYING;
#X obj 537 417 route kd sd hh;
#X obj 661 453 nbx 4 21 -1e+37 1e+37 0 0 empty empty empty 0 -8 0 10
#e4e4e4 #5a5a5a #5a5a5a 0 256;
#X text 683 479 BASS;
#X obj 661 417 fromsymbol;
#X obj 712 452 bng 25 50 50 0 empty empty empty 17 7 0 10 #e4e4e4 #828282
#5a5a5a;
#X obj 495 576 nbx 4 21 -1e+37 1e+37 0 0 empty empty empty 0 -8 0 10
#e4e4e4 #5a5a5a #5a5a5a 0 256;
#X obj 495 540 fromsymbol;
#X obj 546 575 bng 25 50 50 0 empty empty empty 17 7 0 10 #e4e4e4 #828282
#5a5a5a;
#X obj 585 576 nbx 4 21 -1e+37 1e+37 0 0 empty empty empty 0 -8 0 10
#e4e4e4 #5a5a5a #5a5a5a 0 256;
#X obj 585 540 fromsymbol;
#X obj 636 575 bng 25 50 50 0 empty empty empty 17 7 0 10 #e4e4e4 #828282
#5a5a5a;
#X obj 675 576 nbx 4 21 -1e+37 1e+37 0 0 empty empty empty 0 -8 0 10
#e4e4e4 #5a5a5a #5a5a5a 0 256;
#X obj 675 540 fromsymbol;
#X obj 726 575 bng 25 50 50 0 empty empty empty 17 7 0 10 #e4e4e4 #828282
#5a5a5a;
#X text 520 610 KD;
#X text 610 610 SD;
#X text 696 610 HH;
#X text 601 638 DRUM;
#X symbolatom 766 449 21 0 0 0 empty - - 0;
#X obj 920 451 bng 25 50 50 0 empty empty empty 17 7 0 10 #e4e4e4 #828282
#5a5a5a;
#X obj 788 406 any2symbol;
#X text 829 479 SOUND;
#X obj 297 536 bng 25 50 50 0 empty empty empty 17 7 0 10 #e4e4e4 #828282
#5a5a5a;
#X obj 257 501 changed;
#X obj 312 507 changed;
#X obj 337 536 bng 25 50 50 0 empty empty empty 17 7 0 10 #e4e4e4 #828282
#5a5a5a;
#X obj 377 536 bng 25 50 50 0 empty empty empty 17 7 0 10 #e4e4e4 #828282
#5a5a5a;
#X obj 363 511 changed;
#X connect 1 0 2 0;
#X connect 2 0 3 0;
#X connect 3 0 4 0;
#X connect 4 0 5 0;
#X connect 5 0 6 0;
#X connect 6 0 8 0;
#X connect 6 1 9 0;
#X connect 6 2 10 0;
#X connect 8 0 11 0;
#X connect 8 1 14 0;
#X connect 8 2 19 0;
#X connect 8 3 22 0;
#X connect 8 4 25 0;
#X connect 8 5 42 0;
#X connect 11 0 12 0;
#X connect 14 0 15 0;
#X connect 14 1 16 0;
#X connect 14 2 17 0;
#X connect 15 0 45 0;
#X connect 16 0 46 0;
#X connect 17 0 49 0;
#X connect 19 0 20 0;
#X connect 22 0 28 0;
#X connect 22 1 31 0;
#X connect 22 2 34 0;
#X connect 25 0 23 0;
#X connect 25 0 26 0;
#X connect 28 0 27 0;
#X connect 28 0 29 0;
#X connect 31 0 30 0;
#X connect 31 0 32 0;
#X connect 34 0 33 0;
#X connect 34 0 35 0;
#X connect 42 0 40 0;
#X connect 42 0 41 0;
#X connect 45 0 44 0;
#X connect 46 0 47 0;
#X connect 49 0 48 0;
